# xmcd CD database file
#
# Track frame offsets:
#	150
#	17690
#	34757
#	54543
#	69506
#	84842
#
# Disc length: 1356 seconds
#
# Revision: 1
# Processed by: cddbd v1.5.2PL0 Copyright (c) Steve Scherf et al.
# Submitted via: CDex 1.51
#
DISCID=40054a06
DTITLE=Wolfgang Kalb und Juergen Hiltl - Demo CD Country Blues
DYEAR=2002
DGENRE=Blues
TTITLE0=Kindhearted Woman
TTITLE1=St. James Infirmary
TTITLE2=Walking Blues
TTITLE3=Seminole Blues
TTITLE4=Hesitation Blues
TTITLE5=Confessin' the Blues
EXTD=YEAR: 2002
EXTT0=
EXTT1=
EXTT2=
EXTT3=
EXTT4=
EXTT5=
PLAYORDER=
